<?xml version="1.0" standalone="no"?>
<!DOCTYPE svg PUBLIC "-//W3C//DTD SVG 20010904//EN"
 "http://www.w3.org/TR/2001/REC-SVG-20010904/DTD/svg10.dtd">
<svg version="1.0" xmlns="http://www.w3.org/2000/svg"
 width="148.000000pt" height="148.000000pt" viewBox="0 0 148.000000 148.000000"
 preserveAspectRatio="xMidYMid meet">
<g transform="translate(0.000000,148.000000) scale(0.100000,-0.100000)"
fill="#000000" stroke="none">
<path d="M694 1456 c-49 -22 -106 -77 -128 -126 -17 -37 -21 -71 -24 -192 l-4
-148 -79 0 -79 0 0 -110 0 -110 80 0 80 0 0 -385 c0 -336 2 -385 15 -385 13 0
15 49 15 384 0 339 -2 385 -16 390 -8 3 -13 10 -9 15 3 5 -7 9 -22 9 -16 0
-46 0 -68 1 l-40 1 0 75 0 75 30 0 c17 0 36 5 43 12 9 9 12 9 12 -1 0 -16 41
-4 56 18 7 9 14 75 16 166 5 155 11 190 34 181 8 -3 11 0 8 8 -3 7 2 20 10 29
8 8 12 17 9 21 -4 3 1 6 11 6 9 0 19 7 22 15 4 8 15 15 25 15 10 0 19 5 19 11
0 6 7 9 15 5 8 -3 15 -2 15 2 0 4 14 7 31 8 16 1 35 6 42 13 16 16 -79 14
-119 -3z"/>
<path d="M850 1464 c0 -11 186 -37 200 -29 16 10 -7 -156 -23 -167 -6 -3 -20
-3 -31 1 -41 15 -123 2 -160 -26 -38 -28 -46 -56 -46 -156 1 -105 12 -133 53
-134 15 -1 63 -1 108 -2 l80 -1 -3 -75 -3 -75 -75 -1 c-41 -1 -89 -2 -107 -2
-18 0 -30 -4 -27 -9 3 -4 -2 -11 -10 -14 -14 -5 -16 -51 -16 -390 0 -335 2
-384 15 -384 13 0 15 49 15 385 l0 385 115 0 115 0 1 28 c0 15 4 64 7 110 l7
82 -122 0 -123 0 0 96 c0 52 5 104 11 116 21 39 94 52 195 33 l31 -5 13 77 c6
43 16 93 20 110 5 20 4 35 -1 39 -17 10 -239 18 -239 8z"/>
<path d="M1095 831 c-3 -5 -2 -12 3 -15 5 -3 9 1 9 9 0 17 -3 19 -12 6z"/>
</g>
</svg>
