<?xml version="1.0" standalone="no"?>
<!DOCTYPE svg PUBLIC "-//W3C//DTD SVG 20010904//EN"
 "http://www.w3.org/TR/2001/REC-SVG-20010904/DTD/svg10.dtd">
<svg version="1.0" xmlns="http://www.w3.org/2000/svg"
 width="275.000000pt" height="183.000000pt" viewBox="0 0 275.000000 183.000000"
 preserveAspectRatio="xMidYMid meet">
<g transform="translate(0.000000,183.000000) scale(0.100000,-0.100000)"
fill="#000000" stroke="none">
<path d="M685 1495 l-25 -24 0 -550 0 -550 24 -28 24 -28 524 -3 c287 -2 538
0 557 3 18 4 44 17 57 30 l24 24 0 541 c0 571 -1 587 -45 604 -9 3 -264 6
-566 6 l-550 0 -24 -25z m1131 -10 c-3 -9 0 -12 10 -8 10 4 12 0 8 -11 -3 -9
-1 -16 5 -16 8 0 11 -143 11 -534 -1 -490 -2 -535 -18 -548 -23 -19 -75 -41
-67 -28 4 7 -154 10 -474 10 -265 0 -481 -3 -481 -7 0 -5 -15 -7 -32 -6 -18 1
-41 2 -51 2 -11 1 -15 5 -11 13 5 8 2 9 -10 5 -9 -4 -14 -3 -11 2 3 5 1 13 -5
16 -7 5 -9 128 -5 393 4 213 3 452 -2 530 -8 147 -5 171 18 157 8 -5 11 -5 7
0 -4 4 -2 15 5 24 11 14 10 15 -8 1 -19 -14 -19 -14 -6 3 13 16 48 17 568 17
469 -1 554 -3 549 -15z"/>
<path d="M944 1392 c3 -5 -1 -13 -10 -16 -9 -4 -13 -2 -8 5 4 8 -1 9 -17 4
-33 -10 -69 -34 -69 -46 0 -6 -6 -6 -18 0 -16 9 -18 3 -19 -65 -1 -41 3 -77 8
-80 5 -3 7 -10 3 -15 -3 -5 0 -8 8 -7 7 2 12 -3 10 -11 -2 -9 3 -11 14 -7 12
5 15 2 10 -10 -5 -14 -4 -15 9 -4 13 11 15 10 10 -1 -4 -11 7 -14 51 -13 44 1
58 6 70 23 15 21 41 30 28 9 -4 -6 -3 -8 4 -5 5 4 9 15 7 25 -1 9 1 22 5 27
17 23 19 62 4 90 -8 16 -12 35 -9 42 2 8 1 12 -4 9 -5 -3 -28 8 -51 25 -23 17
-40 26 -36 21z m36 -49 c70 -41 66 -145 -7 -182 -36 -18 -79 -13 -112 15 -96
81 11 231 119 167z m-150 -17 c0 -3 -4 -8 -10 -11 -5 -3 -10 -1 -10 4 0 6 5
11 10 11 6 0 10 -2 10 -4z"/>
<path d="M803 1145 c0 -8 4 -12 9 -9 5 3 6 10 3 15 -9 13 -12 11 -12 -6z"/>
<path d="M996 1123 c-6 -14 -5 -15 5 -6 7 7 10 15 7 18 -3 3 -9 -2 -12 -12z"/>
<path d="M850 1103 c0 -7 -5 -13 -11 -13 -19 0 -38 -33 -29 -50 12 -23 10
-482 -2 -497 -7 -9 -7 -13 1 -13 6 0 11 -5 11 -11 0 -5 -4 -7 -10 -4 -6 3 -7
-1 -4 -10 4 -9 12 -14 18 -12 8 3 11 87 11 290 l0 287 93 0 92 0 0 -290 0
-290 -95 0 c-52 0 -95 -4 -95 -9 0 -13 182 -12 197 1 19 16 17 577 -2 598 -11
12 -31 15 -87 13 -48 -1 -75 2 -80 10 -6 9 -8 9 -8 0z"/>
<path d="M1290 1101 c0 -7 -30 -10 -81 -9 -54 1 -83 -3 -88 -11 -23 -37 -21
-570 2 -599 14 -18 202 -14 225 6 15 11 13 11 -8 1 l-25 -12 20 23 c11 13 14
20 8 16 -20 -11 -13 342 7 354 8 5 18 6 22 4 5 -3 7 0 6 7 -2 6 3 14 11 17 9
3 11 0 6 -8 -5 -9 -4 -11 4 -6 6 4 18 2 26 -4 9 -7 15 -8 15 -2 0 5 -7 13 -16
16 -9 4 -14 9 -11 12 3 3 19 -2 36 -12 25 -14 28 -21 20 -36 -6 -11 -8 -24 -5
-31 2 -7 5 -4 5 6 1 9 6 17 12 17 7 0 10 -56 10 -172 -1 -95 0 -181 1 -190 1
-14 16 -17 110 -17 59 0 106 4 103 9 -3 5 2 16 11 24 12 12 12 16 2 17 -7 0
-4 4 7 9 11 5 15 9 9 9 -17 1 -28 379 -12 400 12 14 11 14 -4 2 -16 -12 -18
-11 -18 2 0 24 -40 97 -54 97 -6 0 -5 4 4 9 8 6 17 8 20 6 3 -2 7 6 7 17 2 19
1 19 -11 3 -9 -13 -20 -16 -40 -11 -17 4 -24 11 -20 18 5 8 2 9 -10 5 -11 -5
-15 -3 -10 5 5 8 2 9 -9 5 -9 -3 -19 -2 -21 2 -7 11 -137 8 -155 -3 -10 -7
-12 -5 -6 5 4 8 -6 1 -23 -15 -18 -16 -35 -27 -38 -23 -8 8 6 28 16 22 4 -3
10 1 13 8 3 7 -3 13 -13 13 -10 0 -18 -5 -17 -10 1 -5 -6 -12 -17 -14 -11 -2
-16 0 -12 6 3 6 2 13 -4 17 -5 3 -10 1 -10 -4z m249 -22 c61 -13 95 -38 124
-92 20 -39 22 -57 25 -269 l4 -228 -91 0 -91 0 0 178 c0 149 -3 183 -18 212
-23 46 -68 58 -120 33 -53 -26 -61 -58 -61 -255 l-1 -168 -90 0 -90 0 0 290 0
290 88 0 88 0 -4 -39 -4 -40 41 39 c59 57 109 69 200 49z"/>
<path d="M1625 1091 c-3 -5 -2 -12 3 -15 5 -3 9 1 9 9 0 17 -3 19 -12 6z"/>
<path d="M1455 529 c-4 -6 -5 -12 -2 -15 2 -3 7 2 10 11 7 17 1 20 -8 4z"/>
<path d="M1900 1471 c0 -6 4 -13 10 -16 6 -3 7 1 4 9 -7 18 -14 21 -14 7z"/>
<path d="M1956 449 c-44 -35 -33 -108 21 -137 32 -18 48 -15 82 14 84 70 -17
191 -103 123z m99 -14 c47 -46 22 -115 -42 -115 -46 0 -73 24 -73 64 0 36 7
48 35 64 31 18 54 14 80 -13z"/>
<path d="M1981 383 c1 -27 4 -38 6 -25 5 27 19 28 33 2 6 -11 16 -20 22 -20 6
0 4 8 -6 19 -14 16 -15 20 -2 30 22 18 8 41 -25 41 -28 0 -29 -1 -28 -47z m49
22 c0 -8 -9 -15 -20 -15 -11 0 -20 7 -20 15 0 8 9 15 20 15 11 0 20 -7 20 -15z"/>
</g>
</svg>
