<?xml version="1.0" standalone="no"?>
<!DOCTYPE svg PUBLIC "-//W3C//DTD SVG 20010904//EN"
 "http://www.w3.org/TR/2001/REC-SVG-20010904/DTD/svg10.dtd">
<svg version="1.0" xmlns="http://www.w3.org/2000/svg"
 width="148.000000pt" height="148.000000pt" viewBox="0 0 148.000000 148.000000"
 preserveAspectRatio="xMidYMid meet">
<g transform="translate(0.000000,148.000000) scale(0.100000,-0.100000)"
fill="#000000" stroke="none">
<path d="M330 1163 c0 -1 72 -106 160 -233 92 -133 157 -237 153 -243 -4 -7
-76 -92 -160 -189 -84 -98 -153 -179 -153 -181 0 -2 16 -1 34 1 31 4 51 23
168 159 73 85 136 160 141 166 5 9 10 8 16 -3 5 -8 57 -83 115 -167 l106 -152
120 -3 c66 -2 120 -2 120 0 0 4 -313 457 -325 471 -11 11 14 44 141 192 85 99
154 180 154 182 0 2 -16 1 -35 -1 -32 -4 -50 -21 -166 -158 -72 -85 -132 -154
-133 -154 -1 0 -49 69 -107 154 l-104 154 -123 4 c-67 2 -122 2 -122 1z m92
-30 c-6 -2 -10 -8 -8 -12 3 -4 -1 -8 -9 -8 -11 0 -12 4 -4 14 6 7 17 13 23 12
7 0 6 -2 -2 -6z m363 -373 c132 -193 246 -359 254 -370 13 -19 11 -20 -45 -19
l-59 0 -150 220 c-82 121 -196 287 -253 369 l-102 150 57 0 58 -1 240 -349z
m-85 -80 c6 -11 8 -20 6 -20 -3 0 -10 9 -16 20 -6 11 -8 20 -6 20 3 0 10 -9
16 -20z m390 -323 c0 -20 -24 1 -25 23 -2 21 -1 22 12 5 7 -11 13 -23 13 -28z"/>
<path d="M693 1065 c0 -8 4 -12 9 -9 5 3 6 10 3 15 -9 13 -12 11 -12 -6z"/>
</g>
</svg>
